<svg width="47" height="69" viewBox="0 0 47 69" fill="none" xmlns="http://www.w3.org/2000/svg">
<path d="M40.1815 39.1765C41.182 38.1049 42.9367 38.3203 43.6483 39.6021L46.0069 43.8502C46.5307 44.7938 46.1905 45.9834 45.2469 46.5072C44.3593 47 43.2422 46.7311 42.6762 45.8882L39.9672 41.8545C39.4071 41.0206 39.496 39.9107 40.1815 39.1765Z" fill="black"/>
<path d="M8.90991 67.233C9.33981 65.8315 8.27815 64.418 6.81229 64.4403L1.95386 64.5142C0.874758 64.5306 0.0132755 65.4187 0.0296911 66.4978C0.0451333 67.5129 0.835353 68.3471 1.84815 68.4175L6.69546 68.7543C7.69755 68.8239 8.61535 68.1934 8.90991 67.233Z" fill="black"/>
<path d="M19.7257 6.44047C20.403 10.7088 19.7103 12.0551 15.4419 12.7324C11.7381 12.7324 10.1353 11.0175 9.45809 6.74909C9.45809 3.42316 10.4101 1.31595 14.6785 0.638698C17.607 0.638698 19.0485 2.17211 19.7257 6.44047Z" fill="black"/>
<path d="M16.9259 6.51558C17.2284 8.4221 16.9275 9.0221 15.0615 9.31818C13.1955 9.61426 12.2508 8.65893 11.9483 6.75242C11.6458 4.8459 11.9173 4.28744 13.7833 3.99136C15.6493 3.69528 16.6234 4.60906 16.9259 6.51558Z" fill="#EFF1F0"/>
<path d="M39.1629 42.6822C30.1639 47.3121 32.3973 47.6544 25.8763 46.0242C16.1492 43.5924 9.98139 31.3366 9.98139 24.9124C9.98139 12.93 19.6061 14.0202 20.6596 26.1351C21.4747 35.509 10.484 37.4446 6.23171 47.3284C3.21577 54.3385 6.23173 56.5394 6.23174 62.7343" stroke="#346DBC" stroke-width="5.30769"/>
</svg>
